<?xml version="1.0" encoding="UTF-8" standalone="no"?>
<!-- Generator: Adobe Illustrator 13.0.2, SVG Export Plug-In . SVG Version: 6.00 Build 14948)  -->

<svg
   xmlns:dc="http://purl.org/dc/elements/1.1/"
   xmlns:cc="http://creativecommons.org/ns#"
   xmlns:rdf="http://www.w3.org/1999/02/22-rdf-syntax-ns#"
   xmlns:svg="http://www.w3.org/2000/svg"
   xmlns="http://www.w3.org/2000/svg"
   xmlns:sodipodi="http://sodipodi.sourceforge.net/DTD/sodipodi-0.dtd"
   xmlns:inkscape="http://www.inkscape.org/namespaces/inkscape"
   id="Layer_1"
   enable-background="new 0 0 353.209 182.186"
   xml:space="preserve"
   viewBox="0 0 348.52325 182.93701"
   version="1.1"
   y="0px"
   x="0px"
   inkscape:version="0.48.5 r10040"
   width="100%"
   height="100%"
   sodipodi:docname="johnny-automatic-open-book.svg"><defs
   id="defs3063" /><sodipodi:namedview
   pagecolor="#ffffff"
   bordercolor="#666666"
   borderopacity="1"
   objecttolerance="10"
   gridtolerance="10"
   guidetolerance="10"
   inkscape:pageopacity="0"
   inkscape:pageshadow="2"
   inkscape:window-width="1366"
   inkscape:window-height="721"
   id="namedview3061"
   showgrid="false"
   inkscape:object-nodes="true"
   inkscape:object-paths="true"
   inkscape:snap-global="true"
   inkscape:zoom="0.35355339"
   inkscape:cx="231.43641"
   inkscape:cy="254.50549"
   inkscape:window-x="1916"
   inkscape:window-y="-4"
   inkscape:window-maximized="1"
   inkscape:current-layer="Layer_1"
   fit-margin-top="0"
   fit-margin-left="0"
   fit-margin-right="0"
   fit-margin-bottom="0" />

<metadata
   id="metadata3059"><rdf:RDF><cc:Work><dc:format>image/svg+xml</dc:format><dc:type
         rdf:resource="http://purl.org/dc/dcmitype/StillImage" /><cc:license
         rdf:resource="http://creativecommons.org/licenses/publicdomain/" /><dc:publisher><cc:Agent
           rdf:about="http://openclipart.org/"><dc:title>Openclipart</dc:title></cc:Agent></dc:publisher><dc:title>open book</dc:title><dc:date>2007-10-30T01:35:20</dc:date><dc:description>Open book. Black and white drawing.</dc:description><dc:source>https://openclipart.org/detail/7555/open-book-by-johnny_automatic</dc:source><dc:creator><cc:Agent><dc:title>johnny_automatic</dc:title></cc:Agent></dc:creator><dc:subject><rdf:Bag><rdf:li>black and white</rdf:li><rdf:li>book</rdf:li><rdf:li>reading</rdf:li></rdf:Bag></dc:subject></cc:Work><cc:License
       rdf:about="http://creativecommons.org/licenses/publicdomain/"><cc:permits
         rdf:resource="http://creativecommons.org/ns#Reproduction" /><cc:permits
         rdf:resource="http://creativecommons.org/ns#Distribution" /><cc:permits
         rdf:resource="http://creativecommons.org/ns#DerivativeWorks" /></cc:License></rdf:RDF></metadata><path
   id="path3033-4-1-2"
   d="m 332.14705,83.34848 c 6.32412,8.22557 10.81959,15.97785 15.37619,23.73646 -53.99792,-1.09608 -92.52607,4.78313 -110.52474,14.85907 -13.28514,11.76283 -34.34279,13.62379 -50.994,12.999 -38.86194,7.6582 -81.57777,30.09354 -114.985984,46.994 C 46.575256,145.51296 21.719436,104.13757 1.0275161,69.952 c -0.42812002,-1.88102 4.25485,-5.25931 5.9884,-5.38472 -0.4884,2.88472 0,0 -0.4884,2.88472 25.5257499,38.35599 43.2026599,68.7984 68.4919999,105.49001 32.293894,-15.82213 70.380114,-41.35055 116.814534,-46.73908 6.78545,-10.78614 28.90598,-11.28852 33.38081,-8.43054 36.98382,-23.10044 80.78751,-16.72773 110.77064,-17.8214 -3.65623,-10.90228 -3.91526,-15.51725 -4.557,-26.72399"
   inkscape:connector-curvature="0"
   style="fill:none;stroke:#000000;stroke-width:2;stroke-miterlimit:4;stroke-dasharray:none"
   sodipodi:nodetypes="ccccccccccccc" /><path
   style="fill:none;stroke:#000000;stroke-width:2;stroke-linecap:round;stroke-miterlimit:4;stroke-dasharray:none"
   inkscape:connector-curvature="0"
   d="m 6.5275161,67.452 c 0.844,-4.938 2.248,-15.268 7.3949999,-17.6"
   id="path3043-8-5-2"
   sodipodi:nodetypes="cc" /><path
   style="fill:none;stroke:#000000;stroke-width:2;stroke-linecap:round;stroke-miterlimit:4;stroke-dasharray:none"
   inkscape:connector-curvature="0"
   d="m 13.922516,49.854 c 31.278,-20.75601 75.054,-53.726 111.449984,-23.11201"
   id="path3045-2-2-1" /><path
   style="fill:none;stroke:#000000;stroke-width:2;stroke-linecap:round;stroke-miterlimit:4;stroke-dasharray:none"
   inkscape:connector-curvature="0"
   d="M 125.3685,26.74199 C 146.8985,-9.214 193.9585,8.63 228.3385,1 c 33.81,23.76299 70.05,47.677 103.09,72.227"
   id="path3047-4-7-6"
   sodipodi:nodetypes="ccc" /><path
   style="fill:none;stroke:#000000;stroke-width:2;stroke-linecap:round;stroke-miterlimit:4;stroke-dasharray:none"
   inkscape:connector-curvature="0"
   d="M 208.01535,116.34902 C 214.7177,82.91665 291.1225,80.188 331.4285,73.227"
   id="path3049-5-6-8"
   sodipodi:nodetypes="cc" /><path
   style="fill:none;stroke:#000000;stroke-width:2;stroke-linecap:round;stroke-miterlimit:4;stroke-dasharray:none"
   inkscape:connector-curvature="0"
   d="m 125.3685,26.74199 c 26.053,23.89101 56.47786,65.90902 82.64685,89.60703"
   id="path3051-5-1-5"
   sodipodi:nodetypes="cc" /><path
   style="fill:none;stroke:#000000;stroke-width:2;stroke-linecap:round;stroke-miterlimit:4;stroke-dasharray:none"
   inkscape:connector-curvature="0"
   d="m 13.922516,49.854 c 22.017,30.93 40.332,64.81201 62.092,96.08801"
   id="path3053-1-4-7" /><path
   style="fill:none;stroke:#000000;stroke-width:2;stroke-linecap:round;stroke-miterlimit:4;stroke-dasharray:none"
   inkscape:connector-curvature="0"
   d="M 76.015516,145.94201 C 115.8025,127.81701 165.698,91.78123 208.01535,116.34902"
   id="path3055-7-2-6"
   sodipodi:nodetypes="cc" /><path
   style="fill:none;stroke:#000000;stroke-width:2;stroke-linecap:round;stroke-miterlimit:4;stroke-dasharray:none"
   inkscape:connector-curvature="0"
   d="m 76.015516,145.94201 c -0.556,5.836 -0.093,21.195 -0.996,27"
   id="path3057-1-3-1"
   sodipodi:nodetypes="cc" /></svg>